<svg id="Layer_1" data-name="Layer 1" xmlns="http://www.w3.org/2000/svg" viewBox="0 0 666 360.1"><title>final</title><path d="M356.9,272.7V255.5a16.8,16.8,0,0,0-16.7-16.8H325.8A16.8,16.8,0,0,0,309,255.5v17.2a32.9,32.9,0,1,0,56.9,22.6A32.6,32.6,0,0,0,356.9,272.7Zm-42.8-17.2a11.7,11.7,0,0,1,11.7-11.7h14.4a11.7,11.7,0,0,1,11.7,11.7v12.8a33.2,33.2,0,0,0-37.8,0ZM333,323.4a28.1,28.1,0,0,1-28.1-28.1,27.5,27.5,0,0,1,4.7-15.5,32.4,32.4,0,0,1,4.5-5.3A28.1,28.1,0,1,1,333,323.4Zm0-51.8a23.7,23.7,0,1,0,23.7,23.7A23.7,23.7,0,0,0,333,271.6Zm3.1,27.1v8.9h-4v-8.9a6.5,6.5,0,0,1-4.6-6.2,6.6,6.6,0,1,1,13.2,0A6.5,6.5,0,0,1,336.1,298.7Z" style="fill:#72c594"/><path d="M641.8,257.7H536.6a3.8,3.8,0,0,0-3.7,3.7v36a3.7,3.7,0,0,0,3.7,3.7H641.8a3.7,3.7,0,0,0,3.7-3.7v-36A3.8,3.8,0,0,0,641.8,257.7Zm-.5,39.2H537.1V262H641.3Zm-53.4-10.7V272.7a1.3,1.3,0,1,1,2.6,0v13.5a1.3,1.3,0,1,1-2.6,0Zm9.5,0V272.7a1.2,1.2,0,0,1,1.2-1.3,1.3,1.3,0,0,1,1.3,1.3v13.5a1.3,1.3,0,0,1-1.3,1.3A1.2,1.2,0,0,1,597.4,286.2Zm9.4,0V272.7a1.3,1.3,0,0,1,1.3-1.3,1.2,1.2,0,0,1,1.2,1.3v13.5a1.2,1.2,0,0,1-1.2,1.3A1.3,1.3,0,0,1,606.8,286.2Zm9.5,0V272.7a1.2,1.2,0,0,1,1.2-1.3,1.3,1.3,0,0,1,1.3,1.3v13.5a1.3,1.3,0,0,1-1.3,1.3A1.2,1.2,0,0,1,616.3,286.2Zm-66.2,0V272.7a1.3,1.3,0,0,1,2.6,0v13.5a1.3,1.3,0,0,1-2.6,0Zm9.5,0V272.7a1.3,1.3,0,0,1,1.3-1.3,1.2,1.2,0,0,1,1.2,1.3v13.5a1.2,1.2,0,0,1-1.2,1.3A1.3,1.3,0,0,1,559.6,286.2Zm9.4,0V272.7a1.3,1.3,0,0,1,2.6,0v13.5a1.3,1.3,0,0,1-2.6,0Zm9.5,0V272.7a1.2,1.2,0,0,1,1.2-1.3,1.3,1.3,0,0,1,1.3,1.3v13.5a1.3,1.3,0,0,1-1.3,1.3A1.2,1.2,0,0,1,578.5,286.2Zm47.2,0V272.7a1.3,1.3,0,0,1,1.3-1.3,1.2,1.2,0,0,1,1.2,1.3v13.5a1.2,1.2,0,0,1-1.2,1.3A1.3,1.3,0,0,1,625.7,286.2Zm2.8,20.9a2.2,2.2,0,0,1-2.1,2.1H552a2.1,2.1,0,0,1-2.1-2.1A2.1,2.1,0,0,1,552,305h74.4A2.1,2.1,0,0,1,628.5,307.1Z" style="fill:#72c594"/><path d="M120,310.2V254.1a4.5,4.5,0,0,0-4.5-4.5H30.9a4.5,4.5,0,0,0-4.4,4.5v56.1h-6c.6,4,3.4,7.1,6.7,7.1h91.6c3.3,0,6.1-3.1,6.6-7.1ZM31.5,254.7h83.4v55.5H31.5Z" style="fill:#72c594"/><path d="M356.9,78.7V61.5a16.8,16.8,0,0,0-16.7-16.8H325.8A16.8,16.8,0,0,0,309,61.5V78.7a32.9,32.9,0,1,0,56.9,22.6A32.6,32.6,0,0,0,356.9,78.7ZM314.1,61.5a11.7,11.7,0,0,1,11.7-11.7h14.4a11.7,11.7,0,0,1,11.7,11.7V74.3a33.2,33.2,0,0,0-37.8,0ZM333,129.4a28.1,28.1,0,0,1-28.1-28.1,27.5,27.5,0,0,1,4.7-15.5,32.4,32.4,0,0,1,4.5-5.3A28.1,28.1,0,1,1,333,129.4Zm0-51.8a23.7,23.7,0,1,0,23.7,23.7A23.7,23.7,0,0,0,333,77.6Zm3.1,27.1v8.9h-4v-8.9a6.5,6.5,0,0,1-4.6-6.2,6.6,6.6,0,1,1,13.2,0A6.5,6.5,0,0,1,336.1,104.7Z" style="fill:#aaa"/><path d="M641.8,63.7H536.6a3.8,3.8,0,0,0-3.7,3.7v36a3.7,3.7,0,0,0,3.7,3.7H641.8a3.7,3.7,0,0,0,3.7-3.7v-36A3.8,3.8,0,0,0,641.8,63.7Zm-.5,39.2H537.1V68H641.3ZM587.9,92.2V78.7a1.3,1.3,0,1,1,2.6,0V92.2a1.3,1.3,0,1,1-2.6,0Zm9.5,0V78.7a1.2,1.2,0,0,1,1.2-1.3,1.3,1.3,0,0,1,1.3,1.3V92.2a1.3,1.3,0,0,1-1.3,1.3A1.2,1.2,0,0,1,597.4,92.2Zm9.4,0V78.7a1.3,1.3,0,0,1,1.3-1.3,1.2,1.2,0,0,1,1.2,1.3V92.2a1.2,1.2,0,0,1-1.2,1.3A1.3,1.3,0,0,1,606.8,92.2Zm9.5,0V78.7a1.2,1.2,0,0,1,1.2-1.3,1.3,1.3,0,0,1,1.3,1.3V92.2a1.3,1.3,0,0,1-1.3,1.3A1.2,1.2,0,0,1,616.3,92.2Zm-66.2,0V78.7a1.3,1.3,0,0,1,2.6,0V92.2a1.3,1.3,0,0,1-2.6,0Zm9.5,0V78.7a1.3,1.3,0,0,1,1.3-1.3,1.2,1.2,0,0,1,1.2,1.3V92.2a1.2,1.2,0,0,1-1.2,1.3A1.3,1.3,0,0,1,559.6,92.2Zm9.4,0V78.7a1.3,1.3,0,0,1,2.6,0V92.2a1.3,1.3,0,0,1-2.6,0Zm9.5,0V78.7a1.2,1.2,0,0,1,1.2-1.3,1.3,1.3,0,0,1,1.3,1.3V92.2a1.3,1.3,0,0,1-1.3,1.3A1.2,1.2,0,0,1,578.5,92.2Zm47.2,0V78.7a1.3,1.3,0,0,1,1.3-1.3,1.2,1.2,0,0,1,1.2,1.3V92.2a1.2,1.2,0,0,1-1.2,1.3A1.3,1.3,0,0,1,625.7,92.2Zm2.8,20.9a2.2,2.2,0,0,1-2.1,2.1H552a2.1,2.1,0,0,1-2.1-2.1A2.1,2.1,0,0,1,552,111h74.4A2.1,2.1,0,0,1,628.5,113.1Z" style="fill:#aaa"/><path d="M120,116.2V60.1a4.5,4.5,0,0,0-4.5-4.5H30.9a4.5,4.5,0,0,0-4.4,4.5v56.1h-6c.6,4,3.4,7.1,6.7,7.1h91.6c3.3,0,6.1-3.1,6.6-7.1ZM31.5,60.7h83.4v55.5H31.5Z" style="fill:#aaa"/><polygon points="358 78.5 351 73.5 351 64.5 358 64.5 358 78.5" style="fill:#fff"/><line x1="136" y1="287.5" x2="285" y2="287.5" style="fill:none;stroke:#72c594;stroke-miterlimit:10;stroke-width:2px"/><line x1="375" y1="287.5" x2="524" y2="287.5" style="fill:none;stroke:#72c594;stroke-miterlimit:10;stroke-width:2px"/><line x1="136" y1="93.5" x2="285" y2="93.5" style="fill:none;stroke:#aaa;stroke-miterlimit:10;stroke-width:2px"/><line x1="375" y1="93.5" x2="524" y2="93.5" style="fill:none;stroke:#aaa;stroke-miterlimit:10;stroke-width:2px"/><path d="M62.7,158.8v-8.7h1.8v8.8c0,2.9-2.1,4.8-5.1,4.8s-5.1-1.9-5.1-4.8v-8.8h1.8v8.7a3.3,3.3,0,0,0,6.6,0Z" style="fill:#707070"/><path d="M71.2,153c2.3,0,3.7,1.2,3.7,2.9H73.3a1.9,1.9,0,0,0-2.1-1.5c-1.2,0-2.1.6-2.1,1.5s1.4,1.4,2.6,1.6,3.5.9,3.5,2.9-1.7,3.2-4.1,3.2-3.9-1-3.9-2.9H69c.1,1,.7,1.5,2.2,1.5s2.2-.7,2.2-1.6-1.1-1.3-2.5-1.6-3.5-.9-3.5-2.9S69.2,153,71.2,153Z" style="fill:#707070"/><path d="M77.6,159.1v-1.6c0-2.8,1.8-4.5,4.2-4.5a4.2,4.2,0,0,1,4.3,4.5v1.3H79.3v.5a2.5,2.5,0,0,0,2.6,2.8c1.3,0,2.1-.6,2.2-1.2H86c-.2,1.1-1.4,2.7-4,2.7S77.6,161.9,77.6,159.1Zm6.7-1.6v-.2a2.5,2.5,0,1,0-5,0v.2Z" style="fill:#707070"/><path d="M89.2,153.2h1.7v1.6H91a2.8,2.8,0,0,1,2.8-1.8h.7v1.6h-.9a2.4,2.4,0,0,0-2.7,2.5v6.4H89.2Z" style="fill:#707070"/><path d="M237.2,163.5V150.1H239v13.4Z" style="fill:#707070"/><path d="M242.5,153.2h1.8V155h.1c.2-.8.9-2,3.1-2s3.5,1.1,3.5,3.4v7.1h-1.8V157c0-1.6-.8-2.4-2.2-2.4s-2.7,1.4-2.7,3.1v5.8h-1.8Z" style="fill:#707070"/><path d="M257.8,153c2.2,0,3.6,1.2,3.6,2.9h-1.6a1.9,1.9,0,0,0-2.1-1.5c-1.2,0-2.1.6-2.1,1.5s1.4,1.4,2.6,1.6,3.5.9,3.5,2.9-1.6,3.2-4.1,3.2-3.9-1-3.9-2.9h1.8c.1,1,.7,1.5,2.2,1.5s2.3-.7,2.3-1.6-1.2-1.3-2.6-1.6-3.5-.9-3.5-2.9S255.7,153,257.8,153Z" style="fill:#707070"/><path d="M264.1,159.1v-1.6c0-2.8,1.8-4.5,4.2-4.5a4.2,4.2,0,0,1,4.3,4.5v1.3h-6.8v.5a2.6,2.6,0,0,0,2.7,2.8,2.2,2.2,0,0,0,2.2-1.2h1.8c-.2,1.1-1.4,2.7-4,2.7S264.1,161.9,264.1,159.1Zm6.7-1.6v-.2c0-1.7-.9-2.8-2.5-2.8a2.5,2.5,0,0,0-2.5,2.8v.2Z" style="fill:#707070"/><path d="M275,157.5a4.1,4.1,0,0,1,4.3-4.5c2.6,0,3.9,1.6,4,3.2h-1.8a2,2,0,0,0-2.2-1.6c-1.6,0-2.5,1.1-2.5,2.9v1.6c0,1.8,1,3,2.5,3s2.1-.7,2.3-1.5h1.7c0,1.5-1.3,3-4,3s-4.3-1.7-4.3-4.5Z" style="fill:#707070"/><path d="M294.5,163.5h-1.8v-1.8h-.1a2.9,2.9,0,0,1-3,1.9c-2.1,0-3.6-.9-3.6-3.3v-7.1h1.8v6.6a2,2,0,0,0,2.2,2.3,2.6,2.6,0,0,0,2.7-2.5v-6.4h1.8Z" style="fill:#707070"/><path d="M298.1,153.2h1.8v1.6h0a2.9,2.9,0,0,1,2.9-1.8h.6v1.6h-.8a2.4,2.4,0,0,0-2.7,2.5v6.4h-1.8Z" style="fill:#707070"/><path d="M305.2,159.1v-1.6a4.1,4.1,0,0,1,4.3-4.5,4.2,4.2,0,0,1,4.3,4.5v1.3H307v.5a2.5,2.5,0,0,0,2.6,2.8,2.2,2.2,0,0,0,2.2-1.2h1.8c-.1,1.1-1.4,2.7-4,2.7A4.1,4.1,0,0,1,305.2,159.1Zm6.8-1.6v-.2a2.5,2.5,0,1,0-5,0v.2Z" style="fill:#707070"/><path d="M322.6,157.8c0,2.7,1.3,4.3,3.5,4.3a2.9,2.9,0,0,0,3.1-2.4H331c-.2,2.3-2.3,3.9-4.9,3.9s-5.3-2.2-5.3-5.9v-1.9c0-3.8,2-6.1,5.3-6.1A4.7,4.7,0,0,1,331,154h-1.8a3,3,0,0,0-3.1-2.6c-2.2,0-3.5,1.6-3.5,4.4Z" style="fill:#707070"/><path d="M342.3,157.6v1.5a4.2,4.2,0,0,1-4.4,4.5,4.1,4.1,0,0,1-4.4-4.5v-1.5a4.4,4.4,0,1,1,8.8,0Zm-7.1.1v1.2c0,1.9,1,3.2,2.7,3.2s2.7-1.3,2.7-3.2v-1.2c0-1.9-1-3.2-2.7-3.2S335.2,155.8,335.2,157.7Z" style="fill:#707070"/><path d="M345.3,153.2H347V155h.1a3,3,0,0,1,3.2-2,3.1,3.1,0,0,1,3.4,3.4v7.1H352V157a2.1,2.1,0,0,0-2.2-2.4c-1.9,0-2.7,1.4-2.7,3.1v5.8h-1.8Z" style="fill:#707070"/><path d="M357.2,153.2h1.7V155h.1a3,3,0,0,1,3.1-2c2.1,0,3.5,1.1,3.5,3.4v7.1h-1.7V157a2.1,2.1,0,0,0-2.3-2.4c-1.8,0-2.7,1.4-2.7,3.1v5.8h-1.7Z" style="fill:#707070"/><path d="M368.6,159.1v-1.6c0-2.8,1.7-4.5,4.2-4.5a4.2,4.2,0,0,1,4.3,4.5v1.3h-6.8v.5a2.5,2.5,0,0,0,2.6,2.8,2.2,2.2,0,0,0,2.2-1.2h1.8c-.1,1.1-1.4,2.7-4,2.7S368.6,161.9,368.6,159.1Zm6.7-1.6v-.2a2.5,2.5,0,1,0-5,0v.2Z" style="fill:#707070"/><path d="M379.5,157.5c0-2.7,1.6-4.5,4.3-4.5s3.9,1.6,3.9,3.2H386a2,2,0,0,0-2.2-1.6c-1.7,0-2.5,1.1-2.5,2.9v1.6c0,1.8.9,3,2.5,3s2.1-.7,2.3-1.5h1.7c-.1,1.5-1.3,3-4,3s-4.3-1.7-4.3-4.5Z" style="fill:#707070"/><path d="M391.1,150.6h1.8v2.6h2.3v1.5h-2.3v5.8c0,1.2.4,1.6,1.6,1.6h.9v1.5h-1.3c-2.4,0-3-.9-3-2.9v-5.9h-1.5v-1.5h1.5Z" style="fill:#707070"/><path d="M399.2,148.8a1.2,1.2,0,1,1,0,2.4,1.2,1.2,0,0,1,0-2.4Zm-.9,4.4h1.8v10.3h-1.8Z" style="fill:#707070"/><path d="M412.2,157.6v1.5a4.5,4.5,0,1,1-8.9,0v-1.5a4.3,4.3,0,0,1,4.5-4.6A4.3,4.3,0,0,1,412.2,157.6Zm-7.1.1v1.2c0,1.9,1,3.2,2.7,3.2s2.6-1.3,2.6-3.2v-1.2c0-1.9-1-3.2-2.6-3.2S405.1,155.8,405.1,157.7Z" style="fill:#707070"/><path d="M415.2,153.2h1.7V155h.1a3,3,0,0,1,3.1-2c2.1,0,3.5,1.1,3.5,3.4v7.1h-1.7V157a2.1,2.1,0,0,0-2.3-2.4c-1.8,0-2.7,1.4-2.7,3.1v5.8h-1.7Z" style="fill:#707070"/><path d="M531.7,163.5V150.1h1.7l6.6,10.2h0V150.1h1.8v13.4h-1.7l-6.6-10.3h-.1v10.3Z" style="fill:#707070"/><path d="M553.8,157.6v1.5a4.2,4.2,0,0,1-4.5,4.5,4.1,4.1,0,0,1-4.4-4.5v-1.5a4.5,4.5,0,1,1,8.9,0Zm-7.1.1v1.2c0,1.9.9,3.2,2.6,3.2s2.7-1.3,2.7-3.2v-1.2c0-1.9-1-3.2-2.7-3.2S546.7,155.8,546.7,157.7Z" style="fill:#707070"/><path d="M556.9,153.2h1.8v1.6h.1a2.6,2.6,0,0,1,2.8-1.8h.6v1.6h-.8a2.4,2.4,0,0,0-2.7,2.5v6.4h-1.8Z" style="fill:#707070"/><path d="M564.6,153.2h1.7v1.6h.1a2.7,2.7,0,0,1,2.8-1.8,2.8,2.8,0,0,1,2.9,1.9h0a3.2,3.2,0,0,1,3.2-1.9,3,3,0,0,1,3.3,3.2v7.3h-1.7v-6.8a2,2,0,0,0-2.2-2.1,2.2,2.2,0,0,0-2.2,2.3v6.6h-1.8v-6.7a2,2,0,0,0-2.1-2.2,2.2,2.2,0,0,0-2.3,2.3v6.6h-1.7Z" style="fill:#707070"/><path d="M581.5,160.5c0-1.8,1.2-3.1,3.6-3.1h2.7v-1c0-1.3-.8-1.9-2.2-1.9s-1.8.5-2,1.2h-1.7c.1-1.7,1.5-2.7,3.8-2.7s3.9.9,3.9,3.4v7.1h-1.7v-1.4h-.1a3.3,3.3,0,0,1-3,1.5A3,3,0,0,1,581.5,160.5Zm6.3-.6v-1.1h-2.6c-1.3,0-1.9.7-1.9,1.6s1,1.7,2,1.7A2.3,2.3,0,0,0,587.8,159.9Z" style="fill:#707070"/><path d="M593,149.4h1.8v14.1H593Z" style="fill:#707070"/><path d="M611.4,163.5v-6.1h-6.6v6.1H603V150.1h1.8v5.7h6.6v-5.7h1.8v13.4Z" style="fill:#707070"/><path d="M619.5,163.5V151.7h-4v-1.6h9.8v1.6h-4v11.8Z" style="fill:#707070"/><path d="M630.5,163.5V151.7h-4v-1.6h9.8v1.6h-4v11.8Z" style="fill:#707070"/><path d="M647.8,154.3a4,4,0,0,1-4.3,4.2h-3.1v5h-1.8V150.1h4.9A4.1,4.1,0,0,1,647.8,154.3Zm-4.4-2.6h-3v5.2h3a2.3,2.3,0,0,0,2.5-2.6A2.3,2.3,0,0,0,643.4,151.7Z" style="fill:#707070"/><path d="M62.7,351.8v-8.7h1.8v8.8c0,2.9-2.1,4.8-5.1,4.8s-5.1-1.9-5.1-4.8v-8.8h1.8v8.7a3.3,3.3,0,0,0,6.6,0Z" style="fill:#707070"/><path d="M71.2,346c2.3,0,3.7,1.2,3.7,2.9H73.3a1.9,1.9,0,0,0-2.1-1.5c-1.2,0-2.1.6-2.1,1.5s1.4,1.4,2.6,1.6,3.5.9,3.5,2.9-1.7,3.2-4.1,3.2-3.9-1-3.9-2.9H69c.1,1,.7,1.5,2.2,1.5s2.2-.7,2.2-1.6-1.1-1.3-2.5-1.6-3.5-.9-3.5-2.9S69.2,346,71.2,346Z" style="fill:#707070"/><path d="M77.6,352.1v-1.6c0-2.8,1.8-4.5,4.2-4.5a4.2,4.2,0,0,1,4.3,4.5v1.3H79.3v.5a2.5,2.5,0,0,0,2.6,2.8c1.3,0,2.1-.6,2.2-1.2H86c-.2,1.1-1.4,2.7-4,2.7S77.6,354.9,77.6,352.1Zm6.7-1.6v-.2a2.5,2.5,0,1,0-5,0v.2Z" style="fill:#707070"/><path d="M89.2,346.2h1.7v1.6H91a2.8,2.8,0,0,1,2.8-1.8h.7v1.6h-.9a2.4,2.4,0,0,0-2.7,2.5v6.4H89.2Z" style="fill:#707070"/><path d="M237.8,356.5h-8.1V343.1h8.1v1.6h-6.3v4.2h5.9v1.5h-5.9v4.4h6.3Z" style="fill:#707070"/><path d="M240.8,346.2h1.7V348h.1a3,3,0,0,1,3.1-2c2.1,0,3.5,1.1,3.5,3.4v7.1h-1.8V350c0-1.6-.8-2.4-2.2-2.4s-2.7,1.4-2.7,3.1v5.8h-1.7Z" style="fill:#707070"/><path d="M252.1,350.5a4.1,4.1,0,0,1,4.3-4.5c2.6,0,3.9,1.6,4,3.2h-1.8a1.9,1.9,0,0,0-2.1-1.6c-1.7,0-2.6,1.1-2.6,2.9v1.6c0,1.8,1,3,2.6,3s2-.7,2.2-1.5h1.7c0,1.5-1.3,3-4,3s-4.3-1.7-4.3-4.5Z" style="fill:#707070"/><path d="M263.4,346.2h1.8v1.6h.1a2.6,2.6,0,0,1,2.8-1.8h.6v1.6h-.8a2.4,2.4,0,0,0-2.7,2.5v6.4h-1.8Z" style="fill:#707070"/><path d="M275.9,356.5l-.2.5c-.8,2.2-1.8,3.1-3.6,3.1h-1v-1.5h.7a1.9,1.9,0,0,0,2.1-1.6v-.4l-3.8-10.4h2l2.7,8.5h.1l2.7-8.5h1.9C279.4,346.8,275.9,356.4,275.9,356.5Z" style="fill:#707070"/><path d="M283.9,354.9h-.1v5H282V346.2h1.7v1.6h.1a3.2,3.2,0,0,1,3.1-1.8c2.4,0,3.9,1.7,3.9,4.4v1.8c0,2.7-1.5,4.4-3.9,4.4A3,3,0,0,1,283.9,354.9Zm5.2-3v-1.1c0-2.1-1-3.2-2.7-3.2s-2.6,1.1-2.6,2.9v1.8a2.7,2.7,0,0,0,2.7,2.8C288.1,355.1,289.1,353.9,289.1,351.9Z" style="fill:#707070"/><path d="M294.4,343.6h1.8v2.6h2.3v1.5h-2.3v5.8c0,1.2.4,1.6,1.6,1.6h.8v1.5h-1.2c-2.5,0-3-.9-3-2.9v-5.9h-1.6v-1.5h1.6Z" style="fill:#707070"/><path d="M300.9,352.1v-1.6c0-2.8,1.8-4.5,4.2-4.5a4.2,4.2,0,0,1,4.3,4.5v1.3h-6.8v.5a2.5,2.5,0,0,0,2.7,2.8c1.2,0,2-.6,2.1-1.2h1.9c-.2,1.1-1.4,2.7-4,2.7S300.9,354.9,300.9,352.1Zm6.7-1.6v-.2a2.5,2.5,0,1,0-5,0v.2Z" style="fill:#707070"/><path d="M318.8,347.7h.1v-5.3h1.7v14.1h-1.7v-1.7h-.1a2.9,2.9,0,0,1-3,1.8c-2.4,0-4-1.7-4-4.3v-2c0-2.6,1.6-4.3,4-4.3A3.1,3.1,0,0,1,318.8,347.7Zm-5.2,3v1.2c0,2,1,3.2,2.6,3.2a2.7,2.7,0,0,0,2.7-3v-1.8a2.6,2.6,0,0,0-2.7-2.7C314.6,347.6,313.6,348.7,313.6,350.7Z" style="fill:#707070"/><path d="M330,350.8c0,2.7,1.3,4.3,3.5,4.3s3-1,3.1-2.4h1.8c-.2,2.3-2.2,3.9-4.9,3.9s-5.3-2.2-5.3-5.9v-1.9c0-3.8,2-6.1,5.3-6.1a4.7,4.7,0,0,1,4.9,4.2h-1.8a2.9,2.9,0,0,0-3.1-2.6c-2.2,0-3.5,1.6-3.5,4.4Z" style="fill:#707070"/><path d="M349.8,350.6v1.5a4.5,4.5,0,1,1-8.9,0v-1.5a4.5,4.5,0,1,1,8.9,0Zm-7.1.1v1.2c0,1.9.9,3.2,2.7,3.2s2.6-1.3,2.6-3.2v-1.2c0-1.9-1-3.2-2.6-3.2S342.7,348.8,342.7,350.7Z" style="fill:#707070"/><path d="M352.8,346.2h1.7V348h.1a3,3,0,0,1,3.1-2c2.1,0,3.5,1.1,3.5,3.4v7.1h-1.8V350c0-1.6-.8-2.4-2.2-2.4s-2.7,1.4-2.7,3.1v5.8h-1.7Z" style="fill:#707070"/><path d="M364.6,346.2h1.8V348h.1c.2-.8.9-2,3.1-2s3.5,1.1,3.5,3.4v7.1h-1.8V350c0-1.6-.8-2.4-2.2-2.4s-2.7,1.4-2.7,3.1v5.8h-1.8Z" style="fill:#707070"/><path d="M376,352.1v-1.6a4.1,4.1,0,0,1,4.3-4.5c2.5,0,4.2,1.8,4.2,4.5v1.3h-6.7v.5a2.5,2.5,0,0,0,2.6,2.8,2.2,2.2,0,0,0,2.2-1.2h1.8c-.2,1.1-1.4,2.7-4,2.7S376,354.9,376,352.1Zm6.8-1.6v-.2a2.5,2.5,0,1,0-5,0v.2Z" style="fill:#707070"/><path d="M387,350.5c0-2.7,1.6-4.5,4.2-4.5s3.9,1.6,4,3.2h-1.7a2.1,2.1,0,0,0-2.2-1.6c-1.7,0-2.6,1.1-2.6,2.9v1.6c0,1.8,1,3,2.6,3s2-.7,2.2-1.5h1.8c-.1,1.5-1.3,3-4.1,3s-4.2-1.7-4.2-4.5Z" style="fill:#707070"/><path d="M398.6,343.6h1.7v2.6h2.4v1.5h-2.4v5.8c0,1.2.4,1.6,1.7,1.6h.8v1.5h-1.3c-2.4,0-2.9-.9-2.9-2.9v-5.9H397v-1.5h1.6Z" style="fill:#707070"/><path d="M406.7,341.8a1.2,1.2,0,0,1,0,2.4,1.2,1.2,0,1,1,0-2.4Zm-.9,4.4h1.8v10.3h-1.8Z" style="fill:#707070"/><path d="M419.7,350.6v1.5a4.2,4.2,0,0,1-4.5,4.5,4.1,4.1,0,0,1-4.4-4.5v-1.5a4.5,4.5,0,1,1,8.9,0Zm-7.2.1v1.2c0,1.9,1,3.2,2.7,3.2s2.7-1.3,2.7-3.2v-1.2c0-1.9-1-3.2-2.7-3.2S412.5,348.8,412.5,350.7Z" style="fill:#707070"/><path d="M422.6,346.2h1.8V348h.1c.2-.8.9-2,3.1-2s3.5,1.1,3.5,3.4v7.1h-1.8V350c0-1.6-.8-2.4-2.2-2.4s-2.7,1.4-2.7,3.1v5.8h-1.8Z" style="fill:#707070"/><path d="M528,353.1c.2,1.2,1.4,2,3.2,2s3-.9,3-2.2-.7-1.7-2.2-2.1l-2.3-.6c-2-.5-3.2-1.7-3.2-3.5s2-3.9,4.7-3.9,4.4,1.5,4.6,3.5H534c-.2-1.2-1.3-1.9-2.8-1.9s-2.8.9-2.8,2.2.6,1.6,1.8,1.9l2.3.6c2.4.6,3.5,1.7,3.5,3.6s-1.9,4-5,4-4.6-1.5-4.8-3.6Z" style="fill:#707070"/><path d="M538.4,352.1v-1.6a4.3,4.3,0,1,1,8.5,0v1.3h-6.7v.5a2.5,2.5,0,0,0,2.6,2.8,2.2,2.2,0,0,0,2.2-1.2h1.8c-.2,1.1-1.4,2.7-4,2.7S538.4,354.9,538.4,352.1Zm6.8-1.6v-.2a2.5,2.5,0,1,0-5,0v.2Z" style="fill:#707070"/><path d="M549.3,350.5a4.1,4.1,0,0,1,4.3-4.5c2.6,0,3.9,1.6,4,3.2h-1.8a1.9,1.9,0,0,0-2.1-1.6c-1.7,0-2.6,1.1-2.6,2.9v1.6c0,1.8,1,3,2.6,3s2-.7,2.2-1.5h1.7c0,1.5-1.3,3-4,3s-4.3-1.7-4.3-4.5Z" style="fill:#707070"/><path d="M568.8,356.5H567v-1.8h-.1a2.9,2.9,0,0,1-3,1.9c-2.1,0-3.5-.9-3.5-3.3v-7.1h1.7v6.6a2.1,2.1,0,0,0,2.3,2.3,2.5,2.5,0,0,0,2.6-2.5v-6.4h1.8Z" style="fill:#707070"/><path d="M572.4,346.2h1.8v1.6h.1a2.7,2.7,0,0,1,2.8-1.8h.6v1.6h-.8a2.4,2.4,0,0,0-2.7,2.5v6.4h-1.8Z" style="fill:#707070"/><path d="M579.6,352.1v-1.6c0-2.8,1.8-4.5,4.2-4.5a4.2,4.2,0,0,1,4.3,4.5v1.3h-6.8v.5a2.5,2.5,0,0,0,2.6,2.8c1.2,0,2.1-.6,2.2-1.2h1.8c-.1,1.1-1.4,2.7-3.9,2.7S579.6,354.9,579.6,352.1Zm6.7-1.6v-.2a2.5,2.5,0,1,0-5,0v.2Z" style="fill:#707070"/><path d="M604,356.5v-6.1h-6.6v6.1h-1.8V343.1h1.8v5.7H604v-5.7h1.8v13.4Z" style="fill:#707070"/><path d="M612.2,356.5V344.7h-4.1v-1.6H618v1.6h-4v11.8Z" style="fill:#707070"/><path d="M623.2,356.5V344.7h-4.1v-1.6H629v1.6h-4v11.8Z" style="fill:#707070"/><path d="M640.5,347.3a4,4,0,0,1-4.3,4.2h-3.1v5h-1.8V343.1h4.9A4.1,4.1,0,0,1,640.5,347.3Zm-4.5-2.6h-2.9v5.2H636a2.3,2.3,0,0,0,2.6-2.6A2.4,2.4,0,0,0,636,344.7Z" style="fill:#707070"/><path d="M643.9,353.1c.3,1.2,1.5,2,3.2,2s3-.9,3-2.2-.7-1.7-2.2-2.1l-2.3-.6c-2-.5-3.1-1.7-3.1-3.5s1.9-3.9,4.6-3.9,4.4,1.5,4.7,3.5h-1.9c-.2-1.2-1.3-1.9-2.8-1.9s-2.8.9-2.8,2.2.6,1.6,1.9,1.9l2.2.6c2.4.6,3.5,1.7,3.5,3.6s-1.9,4-5,4-4.6-1.5-4.8-3.6Z" style="fill:#707070"/><path d="M535,249.1c.1.6.8,1.1,1.8,1.1s1.6-.5,1.6-1.1-.4-.9-1.3-1.1l-1.3-.3a2.4,2.4,0,0,1-2.2-2.4c0-1.7,1.3-2.7,3.2-2.7s3.1,1.1,3.2,2.5h-1.6a1.5,1.5,0,0,0-1.6-1.1c-1,0-1.5.5-1.5,1.1s.4.9,1.2,1l1.3.3c1.4.3,2.3,1,2.3,2.5s-1.2,2.7-3.4,2.7-3.3-1.2-3.3-2.5Z" style="fill:#404242"/><path d="M543,249.1c.1.6.8,1.1,1.8,1.1s1.6-.5,1.6-1.1-.4-.9-1.3-1.1l-1.3-.3a2.4,2.4,0,0,1-2.2-2.4c0-1.7,1.3-2.7,3.2-2.7s3.1,1.1,3.2,2.5h-1.6a1.5,1.5,0,0,0-1.6-1.1c-1,0-1.5.5-1.5,1.1s.4.9,1.2,1l1.3.3c1.4.3,2.3,1,2.3,2.5s-1.2,2.7-3.4,2.7-3.3-1.2-3.3-2.5Z" style="fill:#404242"/><path d="M555.3,251.5h-5.4v-8.7h1.7v7.1h3.7Z" style="fill:#404242"/><path d="M561,247.7c0,1.5.7,2.4,1.9,2.4a1.6,1.6,0,0,0,1.7-1.5h1.6v.2c0,1.7-1.4,2.8-3.3,2.8s-3.7-1.5-3.7-3.9v-1.1c0-2.5,1.3-4,3.7-4a3,3,0,0,1,3.3,2.9v.2h-1.6a1.7,1.7,0,0,0-1.7-1.6c-1.2,0-1.9.9-1.9,2.5Z" style="fill:#404242"/><path d="M567.6,248.5v-.8a3,3,0,1,1,6,0v.8h-4.3v.3a1.3,1.3,0,0,0,1.4,1.4c.7,0,1.2-.3,1.2-.7h1.6c0,.9-.9,2.1-2.8,2.1A2.8,2.8,0,0,1,567.6,248.5Zm4.4-1.1h0a1.4,1.4,0,0,0-1.4-1.5,1.3,1.3,0,0,0-1.3,1.5H572Z" style="fill:#404242"/><path d="M575.3,244.7H577v1.1h.1a1.6,1.6,0,0,1,1.7-1.2h.5v1.5h-.7a1.4,1.4,0,0,0-1.6,1.5v3.9h-1.7Z" style="fill:#404242"/><path d="M581.4,243.1H583v1.7h1.5v1.3H583v3.2c0,.7.3.9,1,.9h.6v1.3h-1c-1.7,0-2.2-.6-2.2-2v-3.4h-1v-1.3h1Z" style="fill:#404242"/><path d="M587.1,241.8a1,1,0,1,1,0,1.9.9.9,0,0,1-1-1A.9.9,0,0,1,587.1,241.8Zm-.8,2.9H588v6.8h-1.7Z" style="fill:#404242"/><path d="M590.7,246.1h-1.1v-1.3h1.1v-.7c0-1.3.6-1.9,2.3-1.9h.9v1.2h-.6c-.7,0-1,.2-1,.8v.5h1.5v1.3h-1.5v5.4h-1.6Z" style="fill:#404242"/><path d="M596.4,241.8a.9.9,0,0,1,1,.9.9.9,0,0,1-1,1,1,1,0,1,1,0-1.9Zm-.9,2.9h1.7v6.8h-1.7Z" style="fill:#404242"/><path d="M599,247.6a2.8,2.8,0,0,1,3-3c1.8,0,2.8,1.1,2.8,2.4h-1.6a1,1,0,0,0-1.1-1c-.9,0-1.4.6-1.4,1.7v.7c0,1.1.5,1.8,1.4,1.8a1.1,1.1,0,0,0,1.2-1h1.5c0,1.4-.9,2.4-2.8,2.4a2.8,2.8,0,0,1-3-3.1Z" style="fill:#404242"/><path d="M606.1,249.5c0-1.2.8-2,2.4-2h1.6v-.6c0-.7-.4-1-1.1-1s-1,.3-1.1.7h-1.6c.1-1.1.9-2,2.7-2s2.8.6,2.8,2.3v4.6h-1.6v-.9h-.1a1.9,1.9,0,0,1-1.8,1A2,2,0,0,1,606.1,249.5Zm4-.3v-.7h-1.3c-.7,0-1.1.4-1.1.9a1,1,0,0,0,1.1.9A1.2,1.2,0,0,0,610.1,249.2Z" style="fill:#404242"/><path d="M614.2,243.1h1.6v1.7h1.5v1.3h-1.5v3.2c0,.7.3.9,1,.9h.5v1.3h-.9c-1.7,0-2.3-.6-2.3-2v-3.4h-1v-1.3h1.1Z" style="fill:#404242"/><path d="M618.6,248.5v-.8a2.9,2.9,0,0,1,3-3.1,2.9,2.9,0,0,1,3,3.1v.8h-4.4v.3a1.4,1.4,0,0,0,1.5,1.4c.7,0,1.1-.3,1.2-.7h1.6a2.5,2.5,0,0,1-2.8,2.1A2.8,2.8,0,0,1,618.6,248.5Zm4.3-1.1h0a1.3,1.3,0,0,0-1.3-1.5,1.4,1.4,0,0,0-1.4,1.5h2.7Z" style="fill:#404242"/><line y1="195.5" x2="666" y2="195.5" style="fill:none;stroke:#404242;stroke-miterlimit:10;stroke-width:0.5px"/><path d="M246.3,20.5V11.3h-9.9v9.2h-2.7V.5h2.7V8.9h9.9V.5H249v20Z" style="fill:#404242"/><path d="M258.5,20.5V2.9h-6.1V.5h14.8V2.9h-6V20.5Z" style="fill:#404242"/><path d="M275,20.5V2.9h-6V.5h14.7V2.9h-6V20.5Z" style="fill:#404242"/><path d="M300.9,6.8c0,3.7-2.5,6.2-6.4,6.2h-4.6v7.5h-2.7V.5h7.3A6,6,0,0,1,300.9,6.8Zm-6.6-3.9h-4.4v7.7h4.4a3.5,3.5,0,0,0,3.9-3.8A3.6,3.6,0,0,0,294.3,2.9Z" style="fill:#404242"/><path d="M309.6,5.1h3l3.8,12.6h.1l4-12.6h2.9l-5.6,15.4H315Z" style="fill:#404242"/><path d="M331.7,4.8c3.4,0,5.6,1.7,5.6,4.3h-2.5c-.1-1.1-1.1-2.2-3.2-2.2s-3,.8-3,2.3,2,2.1,3.8,2.4,5.3,1.3,5.3,4.3-2.5,4.8-6.2,4.8-5.8-1.5-5.8-4.3h2.6c.2,1.4,1.2,2.2,3.3,2.2s3.4-1.1,3.4-2.4-1.7-2-3.8-2.4S326,12.5,326,9.5,328.7,4.8,331.7,4.8Z" style="fill:#404242"/><path d="M361.5,20.5V11.3h-9.9v9.2h-2.7V.5h2.7V8.9h9.9V.5h2.7v20Z" style="fill:#404242"/><path d="M373.7,20.5V2.9h-6V.5h14.7V2.9h-6V20.5Z" style="fill:#404242"/><path d="M390.2,20.5V2.9h-6V.5h14.7V2.9h-6V20.5Z" style="fill:#404242"/><path d="M416.2,6.8c0,3.7-2.6,6.2-6.5,6.2h-4.6v7.5h-2.7V.5h7.4A6.1,6.1,0,0,1,416.2,6.8Zm-6.7-3.9h-4.4v7.7h4.4c2.5,0,3.9-1.4,3.9-3.8A3.5,3.5,0,0,0,409.5,2.9Z" style="fill:#404242"/><path d="M421.3,15.4c.4,1.9,2.2,3.1,4.8,3.1s4.5-1.3,4.5-3.4-1-2.5-3.2-3.1l-3.5-.9c-3-.8-4.7-2.6-4.7-5.3s2.9-5.8,7-5.8,6.6,2.2,6.9,5.3h-2.7c-.4-1.8-2-2.9-4.3-2.9s-4.2,1.3-4.2,3.3,1,2.3,2.8,2.8l3.4.9c3.5.9,5.2,2.5,5.2,5.5s-2.8,6-7.5,6-6.9-2.3-7.2-5.5Z" style="fill:#404242"/><path d="M548,234.2H534.9a2.2,2.2,0,0,1-2.3-2.2V210.1a2.3,2.3,0,0,1,2.3-2.3h18.7a2.3,2.3,0,0,1,2.3,2.3v15.8a2.7,2.7,0,0,0-.8-.7l-.8-.5V210.1a.7.7,0,0,0-.7-.7H534.9a.7.7,0,0,0-.7.7V232a.8.8,0,0,0,.7.7h11.9l.5.8Zm-10.6-7.7a.4.4,0,0,0,0,.8h7.8a.4.4,0,1,0,0-.8Zm12.7-6.9H537.4a.4.4,0,0,0-.4.4.4.4,0,0,0,.4.4h12.7a.4.4,0,0,0,.4-.4A.4.4,0,0,0,550.1,219.6Zm.4,3.8a.4.4,0,0,0-.4-.4H537.4a.4.4,0,0,0-.4.4.4.4,0,0,0,.4.4h12.7A.4.4,0,0,0,550.5,223.4Zm-13.1-9.9h10.4a.4.4,0,0,0,.4-.4.4.4,0,0,0-.4-.4H537.4a.4.4,0,0,0-.4.4A.4.4,0,0,0,537.4,213.5Zm12.7,2.6H537.4a.4.4,0,0,0,0,.8h12.7a.4.4,0,1,0,0-.8Zm6.9,13.8a5.2,5.2,0,0,1-2.2,4.2V239l-3.1-2.6-2.9,2.3v-4.5h0l-.7-.6-.7-.8a5.4,5.4,0,0,1-.8-2.8,5.1,5.1,0,0,1,7.7-4.5l.8.5a6,6,0,0,1,.8.8A5.2,5.2,0,0,1,557,229.9Zm-1.1,1.2a3.7,3.7,0,0,0,0-2.4,2.8,2.8,0,0,0-.8-1.5,2.7,2.7,0,0,0-.8-.7,3.7,3.7,0,0,0-2.5-.9,4.3,4.3,0,0,0-4.3,4.3,4.1,4.1,0,0,0,1.1,2.8c0,.1.1.2.2.3l.6.5a4.8,4.8,0,0,0,2.4.7,4.2,4.2,0,0,0,4.1-3.1Zm-1.6-3.5a3.3,3.3,0,0,0-2.5-1.1,3.4,3.4,0,0,0-3.4,3.4,3.3,3.3,0,0,0,.4,1.7l.9,1.1a3.8,3.8,0,0,0,2.1.7,3.6,3.6,0,0,0,2.3-.9h0l.7-.9a1.3,1.3,0,0,0,.3-.8,2.8,2.8,0,0,0,.1-.9,1.9,1.9,0,0,0-.1-.8A2.8,2.8,0,0,0,554.3,227.6Z" style="fill:#72c594"/></svg>